<svg width="438" height="596" viewBox="0 0 438 596" fill="none" xmlns="http://www.w3.org/2000/svg">
<path d="M213.4 572.3C213.7 559.2 214.5 526 215 498.5C215.6 471 216.5 429.8 217 407C218.1 362.9 217.8 355.9 213.8 343.1C206.9 320.8 194.2 305.9 177.7 300.8C170.8 298.7 170.3 298.7 136.1 299.9C105.1 300.9 6.2 304 1.8 304C0.3 304 0 303 0 297.5V291.1L7.8 291.5C12 291.8 40 292.8 70 293.6C100 294.5 134 295.5 145.5 295.9C171.2 296.7 176.1 296.1 185.1 291.4C201.7 282.6 212.8 264 217 238C218 231.7 216.9 169.8 214 67.5C213.5 47.7 213 24.4 213 15.8V0H225.8L225.4 12.7C224.9 27.8 223.5 91.6 221.9 164.8C220.2 241 220.7 246.8 229.6 265.8C233.1 273.2 235.3 276.5 240.7 281.9C248.3 289.5 257.4 294.6 265.7 295.9C268.6 296.3 288.6 296.1 311.2 295.4C333.4 294.7 368.2 293.7 388.5 293.1C408.9 292.5 428.3 291.7 431.8 291.5L438 290.9V297.5C438 303.6 437.9 304 435.8 304C433.4 304 408 303.2 318.9 300.4C263.7 298.7 263.4 298.7 254 303.5C236.4 312.4 224.8 331.6 221.1 358C220.1 365.1 223.3 520.7 225.6 580.3L226.2 596H212.7L213.4 572.3Z" fill="#C4B5E3"/>
<path d="M252.7 467.3C230.5 354.2 232.3 364 234.3 364C235.1 364 236.7 368.7 238.8 376.8C240.5 383.8 245.3 402.3 249.4 418C253.4 433.7 261.1 463.6 266.5 484.4C271.8 505.3 276.4 522.9 276.7 523.6C277 524.5 268.5 527 265 527C264.7 527 259.1 500.1 252.7 467.3Z" fill="#C4B5E3"/>
<path d="M162.7 519.4C160 518.7 157.6 517.9 157.3 517.6C156.7 517 200.3 364.4 201.4 363.2C201.8 362.9 202.5 363.1 203.1 363.7C203.8 364.4 203.5 367.1 202.1 372.6C201 376.9 196.2 398.1 191.5 419.5C179.1 475.4 168.9 519.4 168.2 520.1C167.8 520.4 165.3 520.1 162.7 519.4Z" fill="#C4B5E3"/>
<path d="M108.6 446.7L104.7 443.3L123.6 419.4C133.9 406.3 148.1 388.5 154.9 380C161.8 371.5 170.8 360.3 174.8 355.3C178.9 350.2 182.6 346 183 346C185.1 346 184.8 348 182.2 351.6C179.1 355.8 153.6 393 129.6 428.3C121.4 440.2 114.2 450 113.6 450C113 450 110.7 448.5 108.6 446.7Z" fill="#C4B5E3"/>
<path d="M318.8 443.3C316.3 439.5 307.6 426.7 299.4 414.8C262.9 361.8 253.8 347.8 254.9 346.7C255.5 346.1 256.1 345.8 256.3 346.1C259.3 349.6 321.2 427.7 329.9 438.9L333.3 443.2L329.4 446.6C327.3 448.4 325 449.9 324.4 450C323.8 450 321.3 447 318.8 443.3Z" fill="#C4B5E3"/>
<path d="M360.5 370.7C350.6 365.6 327.9 353.8 310 344.4C292.1 335.1 275.2 326.4 272.3 325C266.7 322.3 266.6 322.2 267.8 320.2C268.5 319.3 270.5 319.8 276.6 322.6C280.9 324.6 304.8 334.9 329.5 345.5C381.8 367.9 384 368.9 384 369.6C384 370.8 379.7 380 379.1 380C378.8 380 370.4 375.8 360.5 370.7Z" fill="#C4B5E3"/>
<path d="M51.1 368.3C49.9 365.2 49.1 362.6 49.3 362.4C49.5 362.2 72.3 353.5 100.1 343.1C127.8 332.7 154.7 322.6 159.9 320.6C166.4 318.1 169.7 317.3 170.4 318C171.9 319.5 170.7 320.3 156 326.8C148.6 330.1 137.1 335.4 130.5 338.5C123.9 341.6 104.6 350.5 87.5 358.2C70.4 365.9 55.8 372.6 54.9 373.1C53.6 373.8 52.9 372.9 51.1 368.3Z" fill="#C4B5E3"/>
<path d="M267.7 276.6C267.3 275.6 269.4 274.3 274.8 272C279 270.2 300.7 260.3 323 250C377.8 224.6 383.6 222 384.7 222C385.9 222 389.2 232.2 388.2 233.1C387.8 233.4 380.8 236.2 372.5 239.3C364.3 242.4 337.7 252.3 313.5 261.4C289.4 270.5 269.3 278 268.9 278C268.5 278 268 277.4 267.7 276.6Z" fill="#C4B5E3"/>
<path d="M115 252.8C84.5 239.7 58.3 228.4 56.8 227.9C55.2 227.3 54 226.5 54 226C54 224.3 58.2 216 59.1 216C60.4 216 72.8 222.3 111 242.3C128.9 251.6 149.8 262.4 157.5 266.3C165.2 270.1 171.7 273.4 171.8 273.5C172 273.7 171.8 274.5 171.3 275.3C170.7 276.4 159.2 271.8 115 252.8Z" fill="#C4B5E3"/>
<path d="M177 243.2C174.5 240.1 159.8 221.8 144.4 202.5C129 183.3 113.6 163.9 110.3 159.6L104.1 151.6L109.1 148.2C111.9 146.4 114.3 145 114.5 145.2C115.4 146.3 136.6 177.5 147 193C153.8 203.2 164.9 219.5 171.7 229.3C182.6 245 184.8 249.1 182.2 249C181.8 249 179.5 246.4 177 243.2Z" fill="#C4B5E3"/>
<path d="M254.6 248.1C254.3 247.7 255.8 244.8 257.9 241.9C260 238.9 275.5 216 292.5 191C309.4 166 323.4 145.3 323.6 145.1C324.3 144.3 333 151.5 332.6 152.6C331.5 155.6 257.1 249 255.9 249C255.5 249 254.9 248.6 254.6 248.1Z" fill="#C4B5E3"/>
<path d="M202.6 230.8C201.3 227.1 193.8 198.3 182.2 153C160.9 69.7 161.4 72 163 71C164.5 70.1 173 68.6 173.6 69.2C173.9 69.6 177.9 89.7 194.6 176C198.2 194.4 202 213.8 203.1 219C204.2 224.2 205.2 229.1 205.3 229.9C205.6 231.7 203.1 232.6 202.6 230.8Z" fill="#C4B5E3"/>
<path d="M234.8 231.5C234.6 231.2 237.8 215.8 242 197.2C246.3 178.7 251.6 155 253.9 144.5C259.5 119.1 269.3 75.6 269.5 75.2C270 74.5 280.3 77.5 280.6 78.5C280.9 79.1 272.7 108.8 262.4 144.6C252.2 180.3 242.4 214.6 240.6 220.7C237.8 230.7 236.5 233.2 234.8 231.5Z" fill="#C4B5E3"/>
</svg>
